<svg width="48" height="48" viewBox="0 0 48 48" fill="none" xmlns="http://www.w3.org/2000/svg">
<mask id="path-1-inside-1_3131_13261" fill="white">
<path d="M15.4307 3C19.2041 3 22.7968 7 26.5703 7H35.2002C39.6805 7 41.9206 7.00015 43.6318 7.87207C45.1371 8.63906 46.3609 9.86287 47.1279 11.3682C47.9999 13.0794 48 15.3195 48 19.7998V32.2002C48 36.6805 47.9999 38.9206 47.1279 40.6318C46.3609 42.1371 45.1371 43.3609 43.6318 44.1279C41.9206 44.9999 39.6805 45 35.2002 45H12.7998C8.31953 45 6.07943 44.9999 4.36816 44.1279C2.86287 43.3609 1.63906 42.1371 0.87207 40.6318C0.000145584 38.9206 1.85142e-10 36.6805 0 32.2002V11C0 6.58172 3.58172 3 8 3H15.4307Z"/>
</mask>
<path d="M15.4307 3C19.2041 3 22.7968 7 26.5703 7H35.2002C39.6805 7 41.9206 7.00015 43.6318 7.87207C45.1371 8.63906 46.3609 9.86287 47.1279 11.3682C47.9999 13.0794 48 15.3195 48 19.7998V32.2002C48 36.6805 47.9999 38.9206 47.1279 40.6318C46.3609 42.1371 45.1371 43.3609 43.6318 44.1279C41.9206 44.9999 39.6805 45 35.2002 45H12.7998C8.31953 45 6.07943 44.9999 4.36816 44.1279C2.86287 43.3609 1.63906 42.1371 0.87207 40.6318C0.000145584 38.9206 1.85142e-10 36.6805 0 32.2002V11C0 6.58172 3.58172 3 8 3H15.4307Z" fill="#7839EE"/>
<path d="M35.2002 7V6V7ZM43.6318 7.87207L44.0858 6.98106L44.0858 6.98106L43.6318 7.87207ZM47.1279 11.3682L48.0189 10.9142L48.0189 10.9142L47.1279 11.3682ZM48 19.7998H49H48ZM48 32.2002H49H48ZM47.1279 40.6318L48.0189 41.0858L48.0189 41.0858L47.1279 40.6318ZM43.6318 44.1279L44.0858 45.0189L44.0858 45.0189L43.6318 44.1279ZM35.2002 45V46V45ZM12.7998 45V46V45ZM4.36816 44.1279L3.91417 45.0189L3.91418 45.0189L4.36816 44.1279ZM0.87207 40.6318L-0.0189381 41.0858L-0.0189362 41.0858L0.87207 40.6318ZM0 32.2002H-1H0ZM26.5703 7V8H35.2002V7V6H26.5703V7ZM35.2002 7V8C37.4568 8 39.0891 8.00081 40.3729 8.10574C41.645 8.20971 42.4867 8.4109 43.1778 8.76308L43.6318 7.87207L44.0858 6.98106C43.0657 6.46131 41.9317 6.22647 40.5359 6.11239C39.1517 5.99926 37.4238 6 35.2002 6V7ZM43.6318 7.87207L43.1778 8.76308C44.495 9.43419 45.5658 10.505 46.2369 11.8222L47.1279 11.3682L48.0189 10.9142C47.1561 9.22072 45.7793 7.84392 44.0858 6.98106L43.6318 7.87207ZM47.1279 11.3682L46.2369 11.8222C46.5891 12.5133 46.7903 13.355 46.8943 14.6271C46.9992 15.9109 47 17.5432 47 19.7998H48H49C49 17.5762 49.0007 15.8483 48.8876 14.4641C48.7735 13.0683 48.5387 11.9343 48.0189 10.9142L47.1279 11.3682ZM48 19.7998H47V32.2002H48H49V19.7998H48ZM48 32.2002H47C47 34.4568 46.9992 36.0891 46.8943 37.3729C46.7903 38.645 46.5891 39.4867 46.2369 40.1778L47.1279 40.6318L48.0189 41.0858C48.5387 40.0657 48.7735 38.9317 48.8876 37.5359C49.0007 36.1517 49 34.4238 49 32.2002H48ZM47.1279 40.6318L46.2369 40.1778C45.5658 41.495 44.495 42.5658 43.1778 43.2369L43.6318 44.1279L44.0858 45.0189C45.7793 44.1561 47.1561 42.7793 48.0189 41.0858L47.1279 40.6318ZM43.6318 44.1279L43.1778 43.2369C42.4867 43.5891 41.645 43.7903 40.3729 43.8943C39.0891 43.9992 37.4568 44 35.2002 44V45V46C37.4238 46 39.1517 46.0007 40.5359 45.8876C41.9317 45.7735 43.0657 45.5387 44.0858 45.0189L43.6318 44.1279ZM35.2002 45V44H12.7998V45V46H35.2002V45ZM12.7998 45V44C10.5432 44 8.91086 43.9992 7.62707 43.8943C6.35495 43.7903 5.51334 43.5891 4.82215 43.2369L4.36816 44.1279L3.91418 45.0189C4.93426 45.5387 6.06833 45.7735 7.46415 45.8876C8.84829 46.0007 10.5762 46 12.7998 46V45ZM4.36816 44.1279L4.82215 43.2369C3.50502 42.5658 2.43419 41.495 1.76308 40.1778L0.87207 40.6318L-0.0189362 41.0858C0.843924 42.7793 2.22071 44.1561 3.91417 45.0189L4.36816 44.1279ZM0.87207 40.6318L1.76308 40.1778C1.4109 39.4867 1.20971 38.645 1.10574 37.3729C1.00081 36.0891 1 34.4568 1 32.2002H0H-1C-1 34.4238 -1.00074 36.1517 -0.887613 37.5359C-0.773531 38.9317 -0.538688 40.0657 -0.0189381 41.0858L0.87207 40.6318ZM0 32.2002H1V11H0H-1V32.2002H0ZM0 11H1C1 7.13401 4.13401 4 8 4V3V2C3.02944 2 -1 6.02944 -1 11H0ZM8 3V4H15.4307V3V2H8V3ZM15.4307 3V4C17.0143 4 18.6206 4.84557 20.5233 5.87879C22.3036 6.84557 24.3804 8 26.5703 8V7V6C24.9867 6 23.3804 5.15443 21.4777 4.12121C19.6973 3.15443 17.6205 2 15.4307 2V3Z" fill="url(#paint0_linear_3131_13261)" mask="url(#path-1-inside-1_3131_13261)"/>
<path d="M3 14C3 11.7909 4.79086 10 7 10H41C43.2091 10 45 11.7909 45 14V38C45 40.2091 43.2091 42 41 42H7C4.79086 42 3 40.2091 3 38V14Z" fill="white"/>
<rect x="0.5" y="13.5" width="47" height="31" rx="7.5" fill="#875BF7" stroke="url(#paint1_linear_3131_13261)"/>
<rect opacity="0.2" y="13" width="48" height="32" rx="8" fill="url(#paint2_linear_3131_13261)"/>
<defs>
<linearGradient id="paint0_linear_3131_13261" x1="24" y1="3" x2="24" y2="45" gradientUnits="userSpaceOnUse">
<stop stop-color="white" stop-opacity="0.12"/>
<stop offset="1" stop-color="white" stop-opacity="0"/>
</linearGradient>
<linearGradient id="paint1_linear_3131_13261" x1="24" y1="13" x2="24" y2="45" gradientUnits="userSpaceOnUse">
<stop stop-color="white" stop-opacity="0.12"/>
<stop offset="1" stop-color="white" stop-opacity="0"/>
</linearGradient>
<linearGradient id="paint2_linear_3131_13261" x1="0" y1="13" x2="33.0094" y2="43.9225" gradientUnits="userSpaceOnUse">
<stop stop-color="white"/>
<stop offset="1" stop-color="white" stop-opacity="0"/>
</linearGradient>
</defs>
</svg>
